<svg width="35" height="35" viewBox="0 0 35 35" fill="none" xmlns="http://www.w3.org/2000/svg">
<mask id="mask0_6_92" style="mask-type:luminance" maskUnits="userSpaceOnUse" x="0" y="0" width="35" height="35">
<path d="M35 0H0V35H35V0Z" fill="white"/>
</mask>
<g mask="url(#mask0_6_92)">
<path d="M26.9375 3.9375H30.9375C31.4905 3.9375 31.9375 4.3845 31.9375 4.9375V29.9375C31.9375 30.4905 31.4905 30.9375 30.9375 30.9375H2.9375C2.3845 30.9375 1.9375 30.4905 1.9375 29.9375V4.9375C1.9375 4.3845 2.3845 3.9375 2.9375 3.9375H3.9375M10.9375 3.9375H19.9375M7.9375 12.9375H9.9375M7.9375 18.9375H9.9375M7.9375 24.9375H9.9375M15.9375 12.9375H17.9375M15.9375 18.9375H17.9375M15.9375 24.9375H17.9375M23.9375 12.9375H25.9375M23.9375 18.9375H25.9375M23.9375 24.9375H25.9375M10.9375 5.9375C10.9375 6.4905 10.4905 6.9375 9.9375 6.9375H7.9375C7.3845 6.9375 6.9375 6.4905 6.9375 5.9375V1.9375C6.9375 1.3845 7.3845 0.9375 7.9375 0.9375H9.9375C10.4905 0.9375 10.9375 1.3845 10.9375 1.9375V5.9375ZM26.9375 5.9375C26.9375 6.4905 26.4905 6.9375 25.9375 6.9375H23.9375C23.3845 6.9375 22.9375 6.4905 22.9375 5.9375V1.9375C22.9375 1.3845 23.3845 0.9375 23.9375 0.9375H25.9375C26.4905 0.9375 26.9375 1.3845 26.9375 1.9375V5.9375Z" stroke="white" stroke-width="2" stroke-linecap="round" stroke-linejoin="round"/>
</g>
</svg>
