<svg width="40" height="40" viewBox="0 0 40 40" fill="none" xmlns="http://www.w3.org/2000/svg">
<path d="M28.3334 6.66634V8.33301H25.0001V6.66634H15.0001V8.33301H11.6667V6.66634C11.6667 5.78229 12.0179 4.93444 12.6431 4.30932C13.2682 3.6842 14.116 3.33301 15.0001 3.33301H25.0001C25.8841 3.33301 26.732 3.6842 27.3571 4.30932C27.9822 4.93444 28.3334 5.78229 28.3334 6.66634Z" fill="white"/>
<path d="M33.3333 10H6.66667C6.22464 10 5.80072 10.1756 5.48816 10.4882C5.17559 10.8007 5 11.2246 5 11.6667C5 12.1087 5.17559 12.5326 5.48816 12.8452C5.80072 13.1577 6.22464 13.3333 6.66667 13.3333H8.45L9.9 33.5667C9.95915 34.4097 10.3363 35.1987 10.9551 35.7742C11.5739 36.3498 12.3883 36.6687 13.2333 36.6667H26.8C27.6451 36.6687 28.4594 36.3498 29.0782 35.7742C29.697 35.1987 30.0742 34.4097 30.1333 33.5667L31.55 13.3333H33.3333C33.7754 13.3333 34.1993 13.1577 34.5118 12.8452C34.8244 12.5326 35 12.1087 35 11.6667C35 11.2246 34.8244 10.8007 34.5118 10.4882C34.1993 10.1756 33.7754 10 33.3333 10ZM21.6667 28.3333C21.6667 28.7754 21.4911 29.1993 21.1785 29.5118C20.8659 29.8244 20.442 30 20 30C19.558 30 19.134 29.8244 18.8215 29.5118C18.5089 29.1993 18.3333 28.7754 18.3333 28.3333V18.3333C18.3333 17.8913 18.5089 17.4674 18.8215 17.1548C19.134 16.8423 19.558 16.6667 20 16.6667C20.442 16.6667 20.8659 16.8423 21.1785 17.1548C21.4911 17.4674 21.6667 17.8913 21.6667 18.3333V28.3333Z" fill="white"/>
</svg>
