<svg width="41" height="41" viewBox="0 0 41 41" fill="none" xmlns="http://www.w3.org/2000/svg">
<path d="M1 18.3333C1 10.1623 1 6.07682 3.5384 3.5384C6.07682 1 10.1623 1 18.3333 1H22.6667C30.8376 1 34.9233 1 37.4615 3.5384C40 6.07682 40 10.1623 40 18.3333V22.6667C40 30.8376 40 34.9233 37.4615 37.4615C34.9233 40 30.8376 40 22.6667 40H18.3333C10.1623 40 6.07682 40 3.5384 37.4615C1 34.9233 1 30.8376 1 22.6667V18.3333Z" stroke="white"/>
<path fill-rule="evenodd" clip-rule="evenodd" d="M35.6611 25.4633L34.9175 24.7195L34.8831 24.6853C34.0153 23.8173 33.3153 23.1175 32.701 22.5996C32.0684 22.0664 31.4522 21.6606 30.7309 21.4431C29.7106 21.1352 28.6221 21.1352 27.6018 21.4431C26.8805 21.6606 26.2643 22.0664 25.6316 22.5996C25.0174 23.1175 24.3173 23.8173 23.4496 24.6853L23.4151 24.7195C22.7658 25.3691 22.3322 25.8009 21.9799 26.0923C21.6302 26.3816 21.479 26.4286 21.4177 26.4392C21.156 26.4851 20.8864 26.4333 20.6604 26.2934C20.6076 26.2607 20.4845 26.1608 20.2674 25.7625C20.0484 25.3611 19.8063 24.799 19.4445 23.9549L19.3288 23.6849L19.3026 23.6238C18.5126 21.7806 17.8847 20.3153 17.2729 19.2281C16.651 18.1231 15.961 17.2473 14.9655 16.7481C14.0739 16.3014 13.0763 16.1091 12.0825 16.193C10.9728 16.2866 10.0069 16.8437 9.01925 17.6384C8.04726 18.4208 6.91998 19.5481 5.50199 20.9662L5.45508 21.013L5.33301 21.1352V22.6672C5.33301 23.2009 5.33316 23.7109 5.33396 24.1982L6.98713 22.545C8.46261 21.0698 9.50787 20.0265 10.3778 19.3265C11.2427 18.6301 11.7952 18.3915 12.2647 18.3519C12.861 18.3016 13.4595 18.4169 13.9945 18.6851C14.4157 18.8962 14.84 19.323 15.3846 20.2906C15.9322 21.2637 16.5154 22.6204 17.3372 24.5384L17.4529 24.8083L17.4737 24.8569C17.8093 25.6399 18.0912 26.2975 18.3653 26.7999C18.6467 27.316 18.9912 27.8083 19.5201 28.1357C20.1981 28.5554 21.0069 28.7112 21.7923 28.5734C22.405 28.4657 22.9077 28.1366 23.3605 27.7619C23.8017 27.3973 24.3076 26.8914 24.9099 26.2888L24.9472 26.2516C25.8574 25.3413 26.4927 24.7076 27.0278 24.2565C27.5528 23.8141 27.9064 23.6143 28.2275 23.5172C28.8398 23.3326 29.4929 23.3326 30.1052 23.5172C30.4263 23.6143 30.7799 23.8141 31.3048 24.2565C31.84 24.7076 32.4753 25.3413 33.3855 26.2516L35.6133 28.4795C35.6419 27.5903 35.6551 26.5935 35.6611 25.4633Z" fill="white"/>
<path d="M30.25 13.999C32.0449 13.999 33.5 12.5439 33.5 10.749C33.5 8.9541 32.0449 7.49902 30.25 7.49902C28.4551 7.49902 27 8.9541 27 10.749C27 12.5439 28.4551 13.999 30.25 13.999Z" fill="white"/>
</svg>
