<svg width="22" height="22" viewBox="0 0 22 22" fill="none" xmlns="http://www.w3.org/2000/svg">
<path d="M9.16667 20.1667V12.8333H1.83333C1.3471 12.8333 0.880788 12.6402 0.536971 12.2964C0.193155 11.9525 0 11.4862 0 11C0 10.5138 0.193155 10.0475 0.536971 9.70364C0.880788 9.35982 1.3471 9.16667 1.83333 9.16667H9.16667V1.83333C9.16667 1.3471 9.35982 0.880788 9.70364 0.536971C10.0475 0.193155 10.5138 0 11 0C11.4862 0 11.9525 0.193155 12.2964 0.536971C12.6402 0.880788 12.8333 1.3471 12.8333 1.83333V9.16667H20.1667C20.6529 9.16667 21.1192 9.35982 21.463 9.70364C21.8068 10.0475 22 10.5138 22 11C22 11.4862 21.8068 11.9525 21.463 12.2964C21.1192 12.6402 20.6529 12.8333 20.1667 12.8333H12.8333V20.1667C12.8333 20.6529 12.6402 21.1192 12.2964 21.463C11.9525 21.8068 11.4862 22 11 22C10.5138 22 10.0475 21.8068 9.70364 21.463C9.35982 21.1192 9.16667 20.6529 9.16667 20.1667Z" fill="white"/>
</svg>
