<svg width="25" height="30" viewBox="0 0 25 30" fill="none" xmlns="http://www.w3.org/2000/svg">
<path d="M23.25 16.8162H12.6143C13.6846 16.1099 14.7935 15.4596 15.7485 14.8325C15.9853 14.6775 16.2158 14.5181 16.4433 14.3574H23.2499C24.2167 14.3574 25 13.686 25 12.8577C25 12.0293 24.2168 11.358 23.2499 11.358H19.6787C20.1656 10.719 20.581 10.0335 20.8867 9.27716C21.6738 7.32698 21.2812 5.08137 19.9648 3.37473C16.645 -0.929798 9.82447 -0.611575 5.07498 1.5267C3.07651 2.42657 4.84549 5.01553 6.84156 4.11687C9.19904 3.05551 11.8164 2.57638 14.3945 3.3028C16.1582 3.79971 17.6231 5.17178 17.7759 6.78476C17.9483 8.61317 16.6562 10.1466 15.1655 11.3588H1.75006C0.783542 11.3588 0 12.0302 0 12.8585C0 13.6869 0.78346 14.3582 1.75006 14.3582H10.669C9.85454 14.8738 9.05448 15.4046 8.30547 15.9936C7.97759 16.2521 7.66996 16.5279 7.38066 16.8171H1.75006C0.783542 16.8171 0 17.4883 0 18.3168C0 19.1449 0.78346 19.8166 1.75006 19.8166H5.33916C4.20189 22.5235 4.56008 25.5967 7.11937 27.8592C10.6594 30.9892 16.7319 30.2217 20.8418 28.5057C22.871 27.6583 21.0957 25.0723 19.0751 25.9154C15.8935 27.2445 10.0621 27.9571 8.55147 24.3069C7.82535 22.552 8.2065 21.087 9.14543 19.817H23.2499C24.2166 19.817 24.9999 19.1454 24.9999 18.3172C25 17.4887 24.2168 16.8162 23.25 16.8162Z" fill="#747474"/>
</svg>
